<svg width="42" height="42" viewBox="0 0 42 42" fill="none" xmlns="http://www.w3.org/2000/svg">
    <path fill-rule="evenodd" clip-rule="evenodd" d="M21 4C11.6177 4 4 11.6177 4 21C4 30.384 11.6177 38 21 38C30.3823 38 38 30.384 38 21C38 11.6177 30.3823 4 21 4Z" fill="#EFFAFC"/>
    <path d="M22.75 29.3333C22.75 28.4133 21.966 27.6667 21 27.6667C20.034 27.6667 19.25 28.4133 19.25 29.3333C19.25 30.2533 20.034 31 21 31C21.966 31 22.75 30.2533 22.75 29.3333Z" fill="#0992AE"/>
    <path d="M21 21C20.034 21 19.25 21.7467 19.25 22.6667V24.3333C19.25 25.2533 20.034 26 21 26C21.966 26 22.75 25.2533 22.75 24.3333V24.1233C25.767 23.3833 28 20.7717 28 17.6667C28 13.9883 24.864 11 21 11C17.136 11 14 13.9883 14 17.6667C14 18.5867 14.784 19.3333 15.75 19.3333C16.716 19.3333 17.5 18.5867 17.5 17.6667C17.5 15.8283 19.068 14.3333 21 14.3333C22.932 14.3333 24.5 15.8283 24.5 17.6667C24.5 19.5067 22.932 21 21 21Z" fill="#0992AE"/>
</svg>
